<svg id="Layer_1" data-name="Layer 1" xmlns="http://www.w3.org/2000/svg" viewBox="0 0 888.48 888.48"><defs><style>.cls-1,.cls-2{fill:none;stroke:#000;stroke-miterlimit:10;}.cls-1{stroke-width:3px;}.cls-2{stroke-width:5px;}</style></defs><title>MathDomain v2-01</title><rect class="cls-1" x="93.62" y="92.88" width="700.62" height="700.72"/><line class="cls-1" x1="444.43" y1="93.38" x2="444.43" y2="794.1"/><line class="cls-1" x1="94.12" y1="443.74" x2="793.75" y2="443.74"/><path class="cls-2" d="M94.12,793.1s5-351.35,349.81-349.86S793.75,92.39,793.75,92.39"/><path d="M313,227.09q10.28,0,16.73,4a20.59,20.59,0,0,1,8.91,11.52q2.46,7.53.29,18l-8.69,43.32H320l8.7-43.47q2.31-11.3-2.11-17.68t-16-6.37q-11.44,0-19.19,6.37T281,261.87l-8.41,42H262.3L271,260.42q2.31-11.3-2.17-17.68t-15.94-6.37q-11.73,0-19.41,6.66T223,263l-8.11,40.86H204.63l15.07-76.07h9.85l-4.34,21.88L223,245.93q5.5-9.85,13.91-14.35a39.67,39.67,0,0,1,19-4.49,32.14,32.14,0,0,1,13.69,2.68,20.91,20.91,0,0,1,9,7.83,24.4,24.4,0,0,1,3.55,12.24l-5.36-1.16a38.62,38.62,0,0,1,15-16.23A41.94,41.94,0,0,1,313,227.09Z"/><path d="M569,667.15l20.29-101.43h38.54q15.35,0,26,5.14a37.42,37.42,0,0,1,16.23,14.35q5.58,9.19,5.58,21.81a65.25,65.25,0,0,1-4.42,24.41,53.45,53.45,0,0,1-12.75,19.06,57.62,57.62,0,0,1-19.92,12.31,73.36,73.36,0,0,1-25.94,4.35Zm12.46-9.27h31.44q16.1,0,27.75-6.52a45.5,45.5,0,0,0,18-17.9,52.77,52.77,0,0,0,6.3-26,33.63,33.63,0,0,0-4.2-17,28.23,28.23,0,0,0-12.68-11.37q-8.47-4-21.37-4.06H598Z"/></svg>