<svg id="Layer_1" data-name="Layer 1" xmlns="http://www.w3.org/2000/svg" viewBox="0 0 888.48 888.48"><defs><style>.cls-1{fill:#fff;stroke-width:3px;}.cls-1,.cls-2{stroke:#000;stroke-miterlimit:10;}.cls-2{fill:none;stroke-width:5px;}</style></defs><title>MathDomain v2 bg</title><rect class="cls-1" x="91.24" y="91.24" width="706" height="706"/><line class="cls-1" x1="444.74" y1="91.74" x2="444.74" y2="797.74"/><line class="cls-1" x1="91.74" y1="444.74" x2="796.74" y2="444.74"/><path class="cls-2" d="M91.74,796.74s5-354,352.5-352.5,352.5-353.5,352.5-353.5"/><path d="M312.31,226.46q10.37,0,16.86,4a20.69,20.69,0,0,1,9,11.6q2.49,7.6.3,18.11l-8.76,43.65H319.32l8.76-43.8q2.32-11.39-2.12-17.81t-16.13-6.42q-11.54,0-19.35,6.42T280.05,261.5l-8.47,42.34H261.21L270,260q2.34-11.39-2.19-17.81t-16.06-6.42q-11.82,0-19.56,6.71t-10.51,20.15l-8.18,41.17H203.1l15.19-76.65h9.93l-4.38,22.05-2.19-3.8q5.53-9.93,14-14.45a39.92,39.92,0,0,1,19.13-4.53,32.27,32.27,0,0,1,13.79,2.7,21,21,0,0,1,9.06,7.89,24.42,24.42,0,0,1,3.57,12.33l-5.4-1.16q5.7-11,15.11-16.36A42.23,42.23,0,0,1,312.31,226.46Z"/><path d="M570.29,669.84l20.44-102.2h38.84q15.48,0,26.21,5.18a37.8,37.8,0,0,1,16.35,14.46q5.61,9.27,5.62,22a66,66,0,0,1-4.45,24.6,53.81,53.81,0,0,1-12.85,19.2,58.14,58.14,0,0,1-20.08,12.41,73.9,73.9,0,0,1-26.13,4.38Zm12.56-9.34h31.68q16.22,0,28-6.57a45.76,45.76,0,0,0,18.1-18A53.11,53.11,0,0,0,667,609.69a33.91,33.91,0,0,0-4.24-17.16,28.37,28.37,0,0,0-12.77-11.46Q641.39,577,628.4,577H599.49Z"/></svg>