<svg id="Layer_1" data-name="Layer 1" xmlns="http://www.w3.org/2000/svg" viewBox="0 0 888.48 888.48"><defs><style>.cls-1{fill:#fff;stroke-width:3px;}.cls-1,.cls-2{stroke:#000;stroke-miterlimit:10;}.cls-2{fill:none;stroke-width:5px;}</style></defs><title>MathDomain v2-01</title><rect class="cls-1" x="86.24" y="86.24" width="716" height="716"/><line class="cls-1" x1="444.75" y1="86.75" x2="444.75" y2="802.75"/><line class="cls-1" x1="86.75" y1="444.75" x2="801.73" y2="444.75"/><path class="cls-2" d="M86.75,801.73s5.07-359,357.49-357.49S801.73,85.73,801.73,85.73"/><path d="M310.44,223.38q10.51,0,17.1,4.07a21,21,0,0,1,9.11,11.77q2.52,7.69.3,18.36l-8.89,44.27H317.55l8.88-44.42q2.37-11.55-2.14-18.06t-16.36-6.52q-11.7,0-19.62,6.52t-10.59,19.54l-8.59,42.94H258.62l8.88-44.42q2.37-11.55-2.22-18.06T249,232.85q-12,0-19.84,6.81T218.49,260.1l-8.29,41.75H199.69l15.4-77.73h10.07l-4.45,22.36-2.22-3.85q5.63-10.08,14.22-14.66a40.47,40.47,0,0,1,19.39-4.59,32.74,32.74,0,0,1,14,2.74,21.33,21.33,0,0,1,9.18,8,24.8,24.8,0,0,1,3.62,12.51l-5.47-1.18q5.77-11.1,15.32-16.58A42.74,42.74,0,0,1,310.44,223.38Z"/><path d="M572.08,673l20.73-103.65h39.38q15.7,0,26.58,5.25a38.39,38.39,0,0,1,16.59,14.66q5.68,9.41,5.7,22.29a66.81,66.81,0,0,1-4.52,24.95,54.6,54.6,0,0,1-13,19.47,59,59,0,0,1-20.36,12.58,74.82,74.82,0,0,1-26.5,4.45Zm12.73-9.48h32.13q16.44,0,28.36-6.66a46.48,46.48,0,0,0,18.36-18.29A54,54,0,0,0,670.1,612a34.28,34.28,0,0,0-4.3-17.4A28.77,28.77,0,0,0,652.85,583q-8.67-4.14-21.84-4.14H601.69Z"/></svg>