<svg id="Layer_1" data-name="Layer 1" xmlns="http://www.w3.org/2000/svg" viewBox="0 0 888.48 888.48"><defs><style>.cls-1,.cls-2{fill:none;stroke:#000;stroke-miterlimit:10;}.cls-1{stroke-width:3px;}.cls-2{stroke-width:5px;}</style></defs><title>MathDomain v2 typo</title><rect class="cls-1" x="174.62" y="120.62" width="539.24" height="539.24"/><line class="cls-1" x1="444.62" y1="121.01" x2="444.62" y2="660.24"/><line class="cls-1" x1="175.01" y1="390.62" x2="713.48" y2="390.62"/><path class="cls-2" d="M175,659.48s3.81-270.38,269.23-269.24,269.24-270,269.24-270"/><path d="M343.47,223.9q7.92,0,12.88,3.07a15.85,15.85,0,0,1,6.86,8.86q1.91,5.8.23,13.83L356.74,283h-7.91l6.69-33.46q1.78-8.7-1.62-13.6T341.58,231A22.52,22.52,0,0,0,326.8,236q-6,4.91-8,14.72L312.36,283h-7.92l6.7-33.46q1.77-8.7-1.68-13.6T297.2,231q-9,0-14.95,5.13t-8,15.39L268,283h-7.92l11.6-58.55h7.58L275.9,241.3l-1.68-2.9a27,27,0,0,1,10.71-11,30.55,30.55,0,0,1,14.61-3.46A24.62,24.62,0,0,1,310.08,226a16,16,0,0,1,6.91,6,18.74,18.74,0,0,1,2.73,9.42l-4.12-.89A29.66,29.66,0,0,1,327.14,228,32.22,32.22,0,0,1,343.47,223.9Z"/><path d="M540.52,562.55l15.61-78.06h29.66q11.82,0,20,4a28.83,28.83,0,0,1,12.49,11,31.78,31.78,0,0,1,4.29,16.78,50.22,50.22,0,0,1-3.4,18.79,41.16,41.16,0,0,1-9.81,14.67,44.56,44.56,0,0,1-15.33,9.48,56.56,56.56,0,0,1-20,3.34Zm9.59-7.13h24.2q12.38,0,21.35-5a35,35,0,0,0,13.83-13.77,40.67,40.67,0,0,0,4.85-20,25.89,25.89,0,0,0-3.23-13.1,21.62,21.62,0,0,0-9.76-8.76q-6.52-3.12-16.45-3.12H562.82Z"/><path d="M161.75,759.48l11.76-58.8h5l17.89,46-2.6-.08,35.28-45.87h5.46l-11.76,58.8h-6l9.91-49.64,1.6.17-32.59,42h-2.94L176.2,709.75l1.34.26-9.83,49.47Z"/><path d="M259.52,759.9a21.26,21.26,0,0,1-10-2.27,16.45,16.45,0,0,1-6.81-6.46,19.65,19.65,0,0,1-2.43-10,28.79,28.79,0,0,1,1.84-10.42,25.52,25.52,0,0,1,5.21-8.35,23.19,23.19,0,0,1,7.94-5.51,25.48,25.48,0,0,1,10-1.93,21.41,21.41,0,0,1,9.82,2.06,14.55,14.55,0,0,1,6.22,6,19.19,19.19,0,0,1,2.18,9.45,32.83,32.83,0,0,1-2.94,14.2,23.26,23.26,0,0,1-8.31,9.74A22.54,22.54,0,0,1,259.52,759.9Zm1.26-5.29a18.27,18.27,0,0,0,16.68-10A22.53,22.53,0,0,0,279.93,734q0-6.56-3.82-10.17t-10.71-3.61a18.42,18.42,0,0,0-9.83,2.69,18.79,18.79,0,0,0-6.84,7.35,22.51,22.51,0,0,0-2.48,10.71q0,6.47,3.82,10.08T260.78,754.61Zm14.54,4.87,2.52-12.68,2.52-8.91.83-9.24,2.69-13.27h6L281,759.48Z"/><path d="M298.58,720.34l.93-5h27.3l-1,5Zm13.11,39.56a12.13,12.13,0,0,1-6.47-1.64,8.58,8.58,0,0,1-3.74-4.66,13.72,13.72,0,0,1-.21-7.22l8.06-40.74h6l-8.07,40.49q-.84,4.11.63,6.38t5.42,2.27a11.93,11.93,0,0,0,3.61-.55,9.37,9.37,0,0,0,3.2-1.72l1.42,4.54a12.58,12.58,0,0,1-4.7,2.22A21.73,21.73,0,0,1,311.69,759.9Z"/><path d="M362.09,715a18.68,18.68,0,0,1,9.78,2.31,12,12,0,0,1,5.29,6.68,19.88,19.88,0,0,1,.21,10.42l-5,25.11h-6l5-25.2q1.33-6.56-1.39-10.25t-9.61-3.69a17.77,17.77,0,0,0-11.72,3.86q-4.67,3.87-6.26,11.59l-4.7,23.69h-6l12.43-62.33h6l-6.22,30.92-1.51-2.19a19.83,19.83,0,0,1,8.27-8.31A24.59,24.59,0,0,1,362.09,715Z"/><path d="M389.81,759.48l11.76-58.8h22.34a34.62,34.62,0,0,1,15.08,3A21.76,21.76,0,0,1,448.4,712a24,24,0,0,1,3.23,12.64,38.11,38.11,0,0,1-2.56,14.16,31,31,0,0,1-7.4,11A33.55,33.55,0,0,1,430.13,757a42.63,42.63,0,0,1-15,2.52Zm7.22-5.37h18.23a32.43,32.43,0,0,0,16.08-3.78A26.34,26.34,0,0,0,441.76,740a30.52,30.52,0,0,0,3.65-15.08A19.52,19.52,0,0,0,443,715a16.4,16.4,0,0,0-7.35-6.59,28.67,28.67,0,0,0-12.39-2.35H406.6Z"/><path d="M477.58,759.9A22.94,22.94,0,0,1,467,757.59a16.8,16.8,0,0,1-7-6.51,19.06,19.06,0,0,1-2.48-9.91,27.42,27.42,0,0,1,3.27-13.48,24.23,24.23,0,0,1,9.08-9.33,25.63,25.63,0,0,1,13.19-3.4,23.35,23.35,0,0,1,10.62,2.27,16.52,16.52,0,0,1,7,6.47,19.16,19.16,0,0,1,2.48,9.91,27.32,27.32,0,0,1-3.28,13.48,24.56,24.56,0,0,1-9,9.37A25.28,25.28,0,0,1,477.58,759.9Zm.43-5.29a18.27,18.27,0,0,0,16.67-10A22.53,22.53,0,0,0,497.16,734q0-6.56-3.83-10.17t-10.71-3.61a18.36,18.36,0,0,0-9.82,2.69,18.74,18.74,0,0,0-6.85,7.35,22.51,22.51,0,0,0-2.48,10.71q0,6.47,3.83,10.08T478,754.61Z"/><path d="M573.43,715a18.23,18.23,0,0,1,9.7,2.31A12,12,0,0,1,588.3,724a20.35,20.35,0,0,1,.17,10.42l-5.05,25.11h-6l5-25.2q1.35-6.56-1.22-10.25T572,720.34A17,17,0,0,0,560.87,724q-4.5,3.71-6,11.09L550,759.48h-6l5-25.2q1.33-6.56-1.26-10.25t-9.24-3.69a16.59,16.59,0,0,0-11.26,3.86q-4.45,3.87-6,11.59l-4.7,23.69h-6l8.73-44.1h5.72l-2.53,12.69-1.26-2.19a20.24,20.24,0,0,1,8.07-8.31,22.92,22.92,0,0,1,11-2.61,18.53,18.53,0,0,1,7.94,1.56,12,12,0,0,1,5.21,4.53,14.19,14.19,0,0,1,2.06,7.1l-3.11-.67a22.36,22.36,0,0,1,8.69-9.41A24.32,24.32,0,0,1,573.43,715Z"/><path d="M618.54,759.9a21.27,21.27,0,0,1-10-2.27,16.42,16.42,0,0,1-6.8-6.46,19.55,19.55,0,0,1-2.44-10,28.79,28.79,0,0,1,1.85-10.42,25.35,25.35,0,0,1,5.21-8.35,23.06,23.06,0,0,1,7.93-5.51,25.48,25.48,0,0,1,10-1.93,21.48,21.48,0,0,1,9.83,2.06,14.53,14.53,0,0,1,6.21,6,19.08,19.08,0,0,1,2.19,9.45,32.83,32.83,0,0,1-2.94,14.2,23.36,23.36,0,0,1-8.32,9.74A22.53,22.53,0,0,1,618.54,759.9Zm1.26-5.29a18.24,18.24,0,0,0,16.67-10A22.53,22.53,0,0,0,639,734q0-6.56-3.82-10.17t-10.71-3.61a18.37,18.37,0,0,0-9.83,2.69,18.74,18.74,0,0,0-6.85,7.35,22.51,22.51,0,0,0-2.48,10.71q0,6.47,3.83,10.08T619.8,754.61Zm14.53,4.87,2.52-12.68,2.52-8.91.84-9.24,2.69-13.27h6L640,759.48Z"/><path d="M656.67,759.48l8.74-44.1h6l-8.74,44.1ZM671,705.64a3.84,3.84,0,0,1-2.9-1.18,3.88,3.88,0,0,1-1.13-2.77,4.53,4.53,0,0,1,4.62-4.54,4.15,4.15,0,0,1,2.94,1.1,3.61,3.61,0,0,1,1.17,2.77,4.42,4.42,0,0,1-1.34,3.32A4.66,4.66,0,0,1,671,705.64Z"/><path d="M709.59,715a18.69,18.69,0,0,1,9.79,2.31,12.06,12.06,0,0,1,5.29,6.68,19.88,19.88,0,0,1,.21,10.42l-5,25.11h-6l5-25.2q1.35-6.56-1.38-10.25t-9.62-3.69a17.79,17.79,0,0,0-11.72,3.86q-4.66,3.87-6.26,11.59l-4.7,23.69h-6l8.73-44.1h5.72l-2.53,12.69-1.26-2.19a19.85,19.85,0,0,1,8.28-8.31A24.54,24.54,0,0,1,709.59,715Z"/></svg>