<svg id="visual" viewBox="0 0 960 540" width="960" height="540" xmlns="http://www.w3.org/2000/svg" xmlns:xlink="http://www.w3.org/1999/xlink" version="1.1"><path d="M0 40L26.7 38.8C53.3 37.7 106.7 35.3 160 44C213.3 52.7 266.7 72.3 320 83.5C373.3 94.7 426.7 97.3 480 99.2C533.3 101 586.7 102 640 85.7C693.3 69.3 746.7 35.7 800 28C853.3 20.3 906.7 38.7 933.3 47.8L960 57L960 0L933.3 0C906.7 0 853.3 0 800 0C746.7 0 693.3 0 640 0C586.7 0 533.3 0 480 0C426.7 0 373.3 0 320 0C266.7 0 213.3 0 160 0C106.7 0 53.3 0 26.7 0L0 0Z" fill="#00ff08" stroke-linecap="round" stroke-linejoin="miter"></path></svg>